# xmcd CD database file
#
# Track frame offsets:
#	150
#	25350
#	39557
#	51750
#	67267
#	84920
#	104332
#	127100
#	132105
#	147590
#	162092
#	186160
#
# Disc length: 2638 seconds
#
# Revision: 0
# Processed by: cddbd v1.5.1PL2 Copyright (c) Steve Scherf et al.
# Submitted via: CDex 1.51
#
DISCID=ad0a4c0c
DTITLE=Moonlight Recital 1976 - moonriders
DYEAR=2005
DGENRE=Rock
TTITLE0=君と旅行鞄
TTITLE1=ウェディング・ソング
TTITLE2=星に願いを
TTITLE3=月の酒場
TTITLE4=砂丘
TTITLE5=火の玉ボーイ
TTITLE6=スカンピン
TTITLE7=さよならアメリカ、さよならニッポン
TTITLE8=丘を越えて
TTITLE9=蝶々−San
TTITLE10="SAYONARA",The Japanese Farewell Song
TTITLE11=Black Peanuts
EXTD=YEAR: 2005
EXTT0=
EXTT1=
EXTT2=
EXTT3=
EXTT4=
EXTT5=
EXTT6=
EXTT7=
EXTT8=
EXTT9=
EXTT10=
EXTT11=
PLAYORDER=
